<!-- Created with Inkscape (http://www.inkscape.org/) -->
<svg width="75.984mm" height="41.048mm" version="1.1" viewBox="0 0 75.984 41.748" xmlns="http://www.w3.org/2000/svg">
	<g transform="translate(-14.473 -226.09)" stroke="#000">
		<path d="m40.524 259.73 6.3808-15.821-6.8448 0.0433-6.3255 15.821-9.7198 0.0615-2.9428 7.1732h23.281l2.9499-7.1711 6.3733-15.908-6.7718-0.0196" stroke-width=".26458px"/>
		<path d="m53.676 243.93h19.435l-6.9088 17.298-9.5064 0.0602 4.217-10.537-4.217 10.537-9.9415 0.0629z" stroke-width=".26458px"/>
		<path d="m73.111 243.93h3.1989l1.9069 2.3695 1.907-2.3695h10.056l-6.9351 8.6172 6.9351 8.5295-10.056 0.0636-1.907-2.3454-1.9069 2.3695-10.108 0.0639 6.9865-8.6811-2.3521-2.9226z" stroke-width=".26458px"/>
		<g transform="translate(-40.394 19.346)" stroke-width=".26973">
			<path d="m67.684 232.12 10.073-25.169c2.2634 0.0527 5.0123 0.0517 9.8095-0.0682l-13.438 33.541"/>
			<path d="m77.543 231.87-3.4154 8.5515-19.062 0.12052 3.447-8.6038c1.2036 0.028 5.1871-0.0469 9.3421-0.0591"/>
		</g>
	</g>
</svg>
